<?xml version="1.0" encoding="UTF-8"?>
<!-- Generator: visioncortex VTracer 0.6.4 -->
<svg version="1.1" xmlns="http://www.w3.org/2000/svg" width="1024" height="1024">
<path d="M0 0 C337.92 0 675.84 0 1024 0 C1024 337.92 1024 675.84 1024 1024 C686.08 1024 348.16 1024 0 1024 C0 686.08 0 348.16 0 0 Z " fill="#FDFDFD" transform="translate(0,0)"/>
<path d="M0 0 C12.42848994 8.29327869 25.80957248 21.33857892 30.7578125 35.75390625 C30.8125 38 30.8125 38 29.6953125 39.52734375 C29.11523438 39.99269531 28.53515625 40.45804687 27.9375 40.9375 C17.82365673 50.24061435 10.51502599 64.31227275 9.6875 78.07958984 C9.04063007 96.92371946 13.34248296 114.22419181 25.78515625 128.98046875 C35.94262174 139.09879179 47.69713952 144.90767887 61.8125 147 C62.27713869 148.31028111 62.73374581 149.62340989 63.1875 150.9375 C63.57035156 152.03384766 63.57035156 152.03384766 63.9609375 153.15234375 C66.57217618 161.88442171 67.15563725 169.96339527 67.12817383 179.0090332 C67.12503125 181.16605061 67.14847662 183.32166856 67.17382812 185.47851562 C67.23090559 197.76468125 65.07647608 209.22381423 61.125 220.875 C60.87153809 221.62547607 60.61807617 222.37595215 60.35693359 223.14916992 C50.68768797 250.75031289 31.97462461 279.78700722 5.30859375 293.265625 C-10.70128695 300.75624464 -27.25228643 296.74985328 -43.1875 291.3125 C-43.80625 291.08175781 -44.425 290.85101562 -45.0625 290.61328125 C-63.02932294 285.42800331 -81.4599302 289.61707397 -98.67407227 295.24389648 C-111.71046133 299.16557661 -124.49102957 297.47856657 -136.5 291.5 C-164.44919252 275.51211445 -183.48584409 243.06924515 -192.4375 212.9140625 C-199.62464203 186.43067912 -194.74135429 160.74963285 -181.61328125 137.17285156 C-178.68022512 132.05678284 -175.67437799 126.98491912 -172.6640625 121.9140625 C-169.54912221 116.65088753 -166.55738732 111.33802458 -163.6875 105.9375 C-163.31512207 105.24986572 -162.94274414 104.56223145 -162.55908203 103.85375977 C-155.47357088 90.36019228 -151.69678599 76.82355754 -148.625 62 C-143.57708008 37.88040057 -137.83558487 14.89681601 -116.66015625 -0.39453125 C-104.05600239 -8.57827096 -92.24273505 -10.07725754 -77.5078125 -7.30859375 C-75.41732919 -6.77958392 -73.32988294 -6.23838603 -71.24609375 -5.68359375 C-62.65552756 -3.76360769 -54.60715119 -4.68176645 -46.25 -7 C-29.86357758 -11.49212975 -14.34155123 -8.95520364 0 0 Z " fill="#4F5152" transform="translate(576.1875,359)"/>
<path d="M0 0 C15.95637542 -1.266379 32.74860081 5.68675253 44.875 15.8125 C52.38244495 22.96244757 57.21639959 31.42319456 61 41 C61.32097656 41.77730469 61.64195312 42.55460937 61.97265625 43.35546875 C64.75211807 51.07332321 64.27069016 58.91939739 64 67 C47.71777784 67.69891892 33.05229271 63.48238819 20.5625 52.625 C12.95801424 45.24490891 7.972448 37.81953438 4 28 C3.64808594 27.17113281 3.29617188 26.34226562 2.93359375 25.48828125 C-0.15128665 17.26623599 -0.27249517 8.67442953 0 0 Z " fill="#4E5254" transform="translate(443,264)"/>
<path d="M0 0 C5.95827896 0.42559135 9.23489347 2.31856872 13.68359375 6.23828125 C15.1171875 8.22265625 15.1171875 8.22265625 15.6796875 10.63671875 C14.86193332 14.39611643 12.41872049 16.03304654 9.5546875 18.34765625 C3.77280843 23.3348132 -0.26445662 28.44310236 -3.8828125 35.22265625 C-4.34171875 36.04894531 -4.800625 36.87523437 -5.2734375 37.7265625 C-9.50308524 46.07119886 -11.08934542 55.11504967 -12.8828125 64.22265625 C-16.1828125 64.22265625 -19.4828125 64.22265625 -22.8828125 64.22265625 C-24.27665652 42.60258672 -18.82832593 20.69667577 -5.109375 3.60546875 C-2.13528418 0.25251286 -2.13528418 0.25251286 0 0 Z " fill="#505355" transform="translate(533.8828125,283.77734375)"/>
<path d="M0 0 C-1.53643852 3.68069887 -3.78150945 5.98775204 -6.625 8.75 C-7.85089844 9.94882812 -7.85089844 9.94882812 -9.1015625 11.171875 C-9.72804688 11.77515625 -10.35453125 12.3784375 -11 13 C-11.66 12.67 -12.32 12.34 -13 12 C-2.63106796 0 -2.63106796 0 0 0 Z " fill="#53595A" transform="translate(458,361)"/>
</svg>
